<svg width="361" height="272" viewBox="0 0 361 272" fill="none" xmlns="http://www.w3.org/2000/svg">
<path d="M287 105.5C287 127.779 279.947 149.487 266.851 167.511C253.756 185.536 235.29 198.952 214.101 205.836C192.912 212.721 170.088 212.721 148.899 205.836C127.71 198.952 109.244 185.536 96.1487 167.511L130.289 142.707C138.147 153.521 149.226 161.571 161.939 165.702C174.653 169.833 188.347 169.833 201.061 165.702C213.774 161.571 224.853 153.521 232.711 142.707C240.568 131.892 244.8 118.868 244.8 105.5H287Z" fill="#C2ECC1"/>
<path d="M148.488 5.29778C164.355 0.0704431 181.237 -1.31415 197.743 1.25795C214.25 3.83005 229.91 10.2853 243.434 20.0924C256.958 29.8996 267.96 42.7782 275.534 57.6683C283.108 72.5584 287.038 89.0344 287 105.74L244.8 105.644C244.823 95.6206 242.465 85.735 237.92 76.801C233.376 67.8669 226.775 60.1397 218.66 54.2555C210.546 48.3712 201.15 44.498 191.246 42.9548C181.342 41.4115 171.213 42.2423 161.693 45.3787L148.488 5.29778Z" fill="#C5C7F6"/>
<path d="M96.4117 167.872C86.5688 154.444 80.0436 138.877 77.3696 122.444C74.6956 106.011 75.9488 89.179 81.0266 73.3232C86.1044 57.4674 94.8628 43.0385 106.586 31.2163C118.308 19.394 132.663 10.5139 148.475 5.30223L161.685 45.3813C152.198 48.5084 143.585 53.8364 136.551 60.9298C129.518 68.0231 124.263 76.6805 121.216 86.1939C118.169 95.7074 117.417 105.807 119.022 115.667C120.626 125.526 124.541 134.866 130.447 142.923L96.4117 167.872Z" fill="#1F1F1F"/>
<rect x="50.7027" y="244.261" width="5.76577" height="5.76577" rx="2.88288" fill="#1F1F1F"/>
<path d="M69.7568 243.23V249.378H68.6968V243.23H69.7568ZM71.9823 245.785V249.378H70.9645V244.809H71.9231L71.9823 245.785ZM71.8007 246.925L71.4713 246.921C71.4741 246.597 71.5192 246.3 71.6064 246.03C71.6965 245.759 71.8204 245.527 71.978 245.333C72.1385 245.139 72.33 244.989 72.5524 244.885C72.7748 244.778 73.0225 244.725 73.2956 244.725C73.5152 244.725 73.7137 244.756 73.8911 244.818C74.0712 244.877 74.2247 244.974 74.3514 245.109C74.4809 245.244 74.5794 245.42 74.647 245.637C74.7145 245.851 74.7483 246.114 74.7483 246.427V249.378H73.7264V246.422C73.7264 246.203 73.694 246.03 73.6292 245.903C73.5673 245.773 73.4758 245.682 73.3547 245.628C73.2365 245.572 73.0887 245.544 72.9113 245.544C72.7368 245.544 72.5805 245.581 72.4426 245.654C72.3046 245.727 72.1878 245.827 72.0921 245.954C71.9992 246.08 71.9274 246.227 71.8767 246.393C71.826 246.559 71.8007 246.736 71.8007 246.925ZM77.2737 248.572L78.3927 244.809H79.4485L77.8606 249.378H77.2019L77.2737 248.572ZM76.4164 244.809L77.5566 248.589L77.6115 249.378H76.9527L75.3564 244.809H76.4164ZM81.1672 244.809V249.378H80.1453V244.809H81.1672ZM80.0777 243.61C80.0777 243.455 80.1284 243.327 80.2297 243.226C80.3339 243.121 80.4775 243.069 80.6605 243.069C80.8407 243.069 80.9828 243.121 81.087 243.226C81.1912 243.327 81.2433 243.455 81.2433 243.61C81.2433 243.762 81.1912 243.889 81.087 243.99C80.9828 244.091 80.8407 244.142 80.6605 244.142C80.4775 244.142 80.3339 244.091 80.2297 243.99C80.1284 243.889 80.0777 243.762 80.0777 243.61ZM84.3767 244.809V245.552H81.8007V244.809H84.3767ZM82.5439 243.69H83.5617V248.116C83.5617 248.256 83.5814 248.365 83.6208 248.441C83.663 248.514 83.7207 248.563 83.7939 248.589C83.8671 248.614 83.953 248.627 84.0515 248.627C84.1219 248.627 84.1895 248.622 84.2542 248.614C84.319 248.606 84.3711 248.597 84.4105 248.589L84.4147 249.366C84.3302 249.391 84.2317 249.414 84.1191 249.433C84.0093 249.453 83.8826 249.463 83.739 249.463C83.5054 249.463 83.2984 249.422 83.1183 249.34C82.9381 249.256 82.7973 249.119 82.696 248.931C82.5946 248.742 82.5439 248.492 82.5439 248.179V243.69ZM87.7382 248.462V246.283C87.7382 246.12 87.7086 245.979 87.6495 245.861C87.5904 245.742 87.5003 245.651 87.3792 245.586C87.261 245.521 87.1118 245.489 86.9316 245.489C86.7655 245.489 86.6219 245.517 86.5009 245.573C86.3798 245.63 86.2855 245.706 86.2179 245.802C86.1503 245.897 86.1166 246.006 86.1166 246.127H85.103C85.103 245.947 85.1467 245.772 85.234 245.603C85.3212 245.434 85.4479 245.284 85.614 245.151C85.7801 245.019 85.9786 244.915 86.2095 244.839C86.4403 244.763 86.6993 244.725 86.9865 244.725C87.33 244.725 87.634 244.782 87.8987 244.898C88.1661 245.013 88.3759 245.188 88.5279 245.421C88.6827 245.652 88.7601 245.942 88.7601 246.291V248.323C88.7601 248.531 88.7742 248.718 88.8024 248.884C88.8333 249.048 88.877 249.19 88.9333 249.311V249.378H87.8902C87.8424 249.269 87.8043 249.129 87.7762 248.96C87.7509 248.789 87.7382 248.622 87.7382 248.462ZM87.886 246.6L87.8944 247.229H87.1639C86.9752 247.229 86.8091 247.247 86.6655 247.284C86.522 247.318 86.4023 247.368 86.3066 247.436C86.2109 247.503 86.1391 247.585 86.0912 247.681C86.0434 247.776 86.0194 247.885 86.0194 248.006C86.0194 248.127 86.0476 248.238 86.1039 248.34C86.1602 248.438 86.2418 248.515 86.3488 248.572C86.4586 248.628 86.5909 248.656 86.7458 248.656C86.9541 248.656 87.1357 248.614 87.2905 248.53C87.4482 248.442 87.5721 248.337 87.6622 248.213C87.7523 248.086 87.8001 247.967 87.8058 247.854L88.1351 248.306C88.1014 248.421 88.0436 248.545 87.962 248.677C87.8804 248.81 87.7734 248.936 87.6411 249.057C87.5116 249.176 87.3553 249.273 87.1723 249.349C86.9921 249.425 86.7838 249.463 86.5473 249.463C86.2489 249.463 85.9828 249.404 85.7492 249.285C85.5155 249.164 85.3325 249.003 85.2002 248.8C85.0679 248.594 85.0017 248.362 85.0017 248.103C85.0017 247.861 85.0467 247.647 85.1368 247.461C85.2297 247.273 85.3649 247.115 85.5422 246.988C85.7224 246.861 85.942 246.766 86.201 246.701C86.46 246.633 86.7556 246.6 87.0878 246.6H87.886ZM91.9189 244.809V245.552H89.3429V244.809H91.9189ZM90.0862 243.69H91.1039V248.116C91.1039 248.256 91.1236 248.365 91.163 248.441C91.2052 248.514 91.263 248.563 91.3362 248.589C91.4094 248.614 91.4952 248.627 91.5938 248.627C91.6641 248.627 91.7317 248.622 91.7965 248.614C91.8612 248.606 91.9133 248.597 91.9527 248.589L91.9569 249.366C91.8725 249.391 91.7739 249.414 91.6613 249.433C91.5515 249.453 91.4248 249.463 91.2813 249.463C91.0476 249.463 90.8407 249.422 90.6605 249.34C90.4803 249.256 90.3395 249.119 90.2382 248.931C90.1368 248.742 90.0862 248.492 90.0862 248.179V243.69ZM93.7939 244.809V249.378H92.772V244.809H93.7939ZM92.7044 243.61C92.7044 243.455 92.7551 243.327 92.8564 243.226C92.9606 243.121 93.1042 243.069 93.2872 243.069C93.4674 243.069 93.6095 243.121 93.7137 243.226C93.8179 243.327 93.8699 243.455 93.8699 243.61C93.8699 243.762 93.8179 243.889 93.7137 243.99C93.6095 244.091 93.4674 244.142 93.2872 244.142C93.1042 244.142 92.9606 244.091 92.8564 243.99C92.7551 243.889 92.7044 243.762 92.7044 243.61ZM94.7145 247.144V247.047C94.7145 246.718 94.7624 246.412 94.8581 246.131C94.9538 245.847 95.0918 245.6 95.272 245.392C95.455 245.181 95.6774 245.017 95.9392 244.902C96.2038 244.784 96.5023 244.725 96.8345 244.725C97.1695 244.725 97.4679 244.784 97.7297 244.902C97.9944 245.017 98.2182 245.181 98.4012 245.392C98.5842 245.6 98.7235 245.847 98.8193 246.131C98.915 246.412 98.9628 246.718 98.9628 247.047V247.144C98.9628 247.474 98.915 247.779 98.8193 248.061C98.7235 248.342 98.5842 248.589 98.4012 248.8C98.2182 249.008 97.9958 249.171 97.734 249.29C97.4721 249.405 97.1751 249.463 96.8429 249.463C96.5079 249.463 96.2081 249.405 95.9434 249.29C95.6816 249.171 95.4592 249.008 95.2762 248.8C95.0932 248.589 94.9538 248.342 94.8581 248.061C94.7624 247.779 94.7145 247.474 94.7145 247.144ZM95.7323 247.047V247.144C95.7323 247.35 95.7534 247.544 95.7956 247.727C95.8378 247.91 95.904 248.071 95.9941 248.209C96.0842 248.347 96.1996 248.455 96.3404 248.534C96.4811 248.613 96.6487 248.652 96.8429 248.652C97.0315 248.652 97.1948 248.613 97.3328 248.534C97.4735 248.455 97.589 248.347 97.6791 248.209C97.7692 248.071 97.8353 247.91 97.8775 247.727C97.9226 247.544 97.9451 247.35 97.9451 247.144V247.047C97.9451 246.845 97.9226 246.653 97.8775 246.473C97.8353 246.29 97.7677 246.128 97.6748 245.987C97.5847 245.847 97.4693 245.737 97.3286 245.658C97.1906 245.576 97.0259 245.535 96.8345 245.535C96.643 245.535 96.4769 245.576 96.3362 245.658C96.1982 245.737 96.0842 245.847 95.9941 245.987C95.904 246.128 95.8378 246.29 95.7956 246.473C95.7534 246.653 95.7323 246.845 95.7323 247.047ZM100.825 245.785V249.378H99.8074V244.809H100.766L100.825 245.785ZM100.644 246.925L100.314 246.921C100.317 246.597 100.362 246.3 100.449 246.03C100.539 245.759 100.663 245.527 100.821 245.333C100.981 245.139 101.173 244.989 101.395 244.885C101.618 244.778 101.865 244.725 102.139 244.725C102.358 244.725 102.557 244.756 102.734 244.818C102.914 244.877 103.068 244.974 103.194 245.109C103.324 245.244 103.422 245.42 103.49 245.637C103.557 245.851 103.591 246.114 103.591 246.427V249.378H102.569V246.422C102.569 246.203 102.537 246.03 102.472 245.903C102.41 245.773 102.319 245.682 102.198 245.628C102.079 245.572 101.932 245.544 101.754 245.544C101.58 245.544 101.423 245.581 101.285 245.654C101.148 245.727 101.031 245.827 100.935 245.954C100.842 246.08 100.77 246.227 100.72 246.393C100.669 246.559 100.644 246.736 100.644 246.925ZM107.193 248.141C107.193 248.04 107.168 247.948 107.117 247.867C107.067 247.782 106.97 247.706 106.826 247.639C106.685 247.571 106.477 247.509 106.201 247.453C105.959 247.399 105.736 247.336 105.534 247.263C105.334 247.187 105.162 247.095 105.019 246.988C104.875 246.881 104.764 246.755 104.685 246.608C104.606 246.462 104.567 246.293 104.567 246.101C104.567 245.916 104.608 245.74 104.689 245.573C104.771 245.407 104.888 245.261 105.04 245.134C105.192 245.008 105.376 244.908 105.593 244.834C105.813 244.761 106.057 244.725 106.328 244.725C106.711 244.725 107.039 244.789 107.312 244.919C107.588 245.046 107.799 245.219 107.945 245.438C108.092 245.655 108.165 245.9 108.165 246.173H107.147C107.147 246.052 107.116 245.939 107.054 245.835C106.995 245.728 106.905 245.642 106.784 245.578C106.663 245.51 106.511 245.476 106.328 245.476C106.153 245.476 106.008 245.505 105.893 245.561C105.78 245.614 105.696 245.685 105.639 245.772C105.586 245.859 105.559 245.955 105.559 246.059C105.559 246.135 105.573 246.204 105.601 246.266C105.632 246.325 105.683 246.38 105.753 246.431C105.824 246.479 105.919 246.524 106.041 246.566C106.164 246.608 106.319 246.649 106.505 246.688C106.854 246.762 107.154 246.856 107.405 246.971C107.658 247.084 107.852 247.23 107.987 247.41C108.122 247.588 108.19 247.813 108.19 248.086C108.19 248.289 108.146 248.475 108.059 248.644C107.975 248.81 107.851 248.955 107.688 249.079C107.524 249.2 107.329 249.294 107.101 249.361C106.875 249.429 106.622 249.463 106.34 249.463C105.927 249.463 105.576 249.39 105.289 249.243C105.002 249.094 104.784 248.904 104.634 248.673C104.488 248.439 104.415 248.197 104.415 247.947H105.399C105.41 248.135 105.462 248.286 105.555 248.399C105.651 248.508 105.769 248.589 105.91 248.639C106.053 248.687 106.201 248.711 106.353 248.711C106.536 248.711 106.689 248.687 106.813 248.639C106.937 248.589 107.032 248.521 107.096 248.437C107.161 248.349 107.193 248.251 107.193 248.141ZM113.798 248.141C113.798 248.04 113.773 247.948 113.722 247.867C113.671 247.782 113.574 247.706 113.431 247.639C113.29 247.571 113.082 247.509 112.806 247.453C112.564 247.399 112.341 247.336 112.139 247.263C111.939 247.187 111.767 247.095 111.623 246.988C111.48 246.881 111.369 246.755 111.29 246.608C111.211 246.462 111.171 246.293 111.171 246.101C111.171 245.916 111.212 245.74 111.294 245.573C111.376 245.407 111.492 245.261 111.644 245.134C111.796 245.008 111.981 244.908 112.198 244.834C112.417 244.761 112.662 244.725 112.932 244.725C113.315 244.725 113.643 244.789 113.916 244.919C114.192 245.046 114.403 245.219 114.55 245.438C114.696 245.655 114.769 245.9 114.769 246.173H113.752C113.752 246.052 113.721 245.939 113.659 245.835C113.6 245.728 113.51 245.642 113.389 245.578C113.267 245.51 113.115 245.476 112.932 245.476C112.758 245.476 112.613 245.505 112.497 245.561C112.385 245.614 112.3 245.685 112.244 245.772C112.191 245.859 112.164 245.955 112.164 246.059C112.164 246.135 112.178 246.204 112.206 246.266C112.237 246.325 112.288 246.38 112.358 246.431C112.429 246.479 112.524 246.524 112.645 246.566C112.769 246.608 112.924 246.649 113.11 246.688C113.459 246.762 113.759 246.856 114.009 246.971C114.263 247.084 114.457 247.23 114.592 247.41C114.727 247.588 114.795 247.813 114.795 248.086C114.795 248.289 114.751 248.475 114.664 248.644C114.579 248.81 114.456 248.955 114.292 249.079C114.129 249.2 113.933 249.294 113.705 249.361C113.48 249.429 113.227 249.463 112.945 249.463C112.531 249.463 112.181 249.39 111.894 249.243C111.606 249.094 111.388 248.904 111.239 248.673C111.093 248.439 111.019 248.197 111.019 247.947H112.003C112.015 248.135 112.067 248.286 112.16 248.399C112.255 248.508 112.374 248.589 112.514 248.639C112.658 248.687 112.806 248.711 112.958 248.711C113.141 248.711 113.294 248.687 113.418 248.639C113.542 248.589 113.636 248.521 113.701 248.437C113.766 248.349 113.798 248.251 113.798 248.141ZM117.7 249.463C117.362 249.463 117.057 249.408 116.784 249.298C116.514 249.186 116.283 249.029 116.091 248.829C115.903 248.63 115.758 248.394 115.656 248.124C115.555 247.854 115.504 247.563 115.504 247.25V247.081C115.504 246.724 115.556 246.4 115.66 246.11C115.765 245.82 115.91 245.572 116.095 245.367C116.281 245.158 116.501 244.999 116.754 244.889C117.008 244.78 117.282 244.725 117.578 244.725C117.904 244.725 118.19 244.78 118.435 244.889C118.68 244.999 118.883 245.154 119.043 245.354C119.206 245.551 119.327 245.786 119.406 246.059C119.488 246.332 119.529 246.633 119.529 246.963V247.398H115.998V246.667H118.524V246.587C118.518 246.404 118.481 246.232 118.414 246.072C118.349 245.911 118.249 245.782 118.114 245.683C117.979 245.585 117.799 245.535 117.573 245.535C117.405 245.535 117.254 245.572 117.122 245.645C116.992 245.716 116.884 245.818 116.796 245.954C116.709 246.089 116.642 246.252 116.594 246.443C116.549 246.632 116.526 246.845 116.526 247.081V247.25C116.526 247.45 116.553 247.636 116.606 247.807C116.663 247.976 116.744 248.124 116.851 248.251C116.958 248.378 117.088 248.477 117.24 248.551C117.392 248.621 117.565 248.656 117.759 248.656C118.004 248.656 118.222 248.607 118.414 248.508C118.605 248.41 118.771 248.271 118.912 248.09L119.448 248.61C119.35 248.753 119.222 248.891 119.064 249.024C118.907 249.153 118.714 249.259 118.486 249.34C118.26 249.422 117.999 249.463 117.7 249.463ZM121.332 245.785V249.378H120.314V244.809H121.273L121.332 245.785ZM121.15 246.925L120.821 246.921C120.824 246.597 120.869 246.3 120.956 246.03C121.046 245.759 121.17 245.527 121.328 245.333C121.488 245.139 121.68 244.989 121.902 244.885C122.124 244.778 122.372 244.725 122.645 244.725C122.865 244.725 123.063 244.756 123.241 244.818C123.421 244.877 123.574 244.974 123.701 245.109C123.831 245.244 123.929 245.42 123.997 245.637C124.064 245.851 124.098 246.114 124.098 246.427V249.378H123.076V246.422C123.076 246.203 123.044 246.03 122.979 245.903C122.917 245.773 122.825 245.682 122.704 245.628C122.586 245.572 122.438 245.544 122.261 245.544C122.086 245.544 121.93 245.581 121.792 245.654C121.654 245.727 121.537 245.827 121.442 245.954C121.349 246.08 121.277 246.227 121.226 246.393C121.176 246.559 121.15 246.736 121.15 246.925ZM127.231 244.809V245.552H124.655V244.809H127.231ZM125.399 243.69H126.416V248.116C126.416 248.256 126.436 248.365 126.476 248.441C126.518 248.514 126.575 248.563 126.649 248.589C126.722 248.614 126.808 248.627 126.906 248.627C126.977 248.627 127.044 248.622 127.109 248.614C127.174 248.606 127.226 248.597 127.265 248.589L127.269 249.366C127.185 249.391 127.086 249.414 126.974 249.433C126.864 249.453 126.737 249.463 126.594 249.463C126.36 249.463 126.153 249.422 125.973 249.34C125.793 249.256 125.652 249.119 125.551 248.931C125.449 248.742 125.399 248.492 125.399 248.179V243.69Z" fill="black" fill-opacity="0.38"/>
<path d="M74.1149 267.153V268.234H68.6194V267.305L71.2883 264.394C71.5811 264.064 71.8119 263.779 71.9809 263.538C72.1498 263.298 72.268 263.082 72.3356 262.891C72.4069 262.696 72.4426 262.506 72.4426 262.322C72.4426 262.063 72.3938 261.836 72.2962 261.641C72.2023 261.442 72.0634 261.286 71.8795 261.173C71.6956 261.057 71.4722 260.999 71.2095 260.999C70.9054 260.999 70.6502 261.065 70.4437 261.196C70.2372 261.327 70.0815 261.509 69.9764 261.742C69.8712 261.971 69.8187 262.234 69.8187 262.53H68.4617C68.4617 262.054 68.5706 261.618 68.7883 261.224C69.006 260.826 69.3213 260.511 69.7342 260.278C70.1471 260.042 70.6445 259.923 71.2264 259.923C71.7744 259.923 72.2399 260.015 72.6227 260.199C73.0056 260.383 73.2965 260.644 73.4955 260.982C73.6982 261.32 73.7995 261.72 73.7995 262.181C73.7995 262.437 73.7583 262.69 73.6757 262.941C73.5931 263.193 73.4749 263.444 73.3209 263.696C73.1708 263.944 72.9925 264.193 72.786 264.445C72.5796 264.693 72.3525 264.944 72.1047 265.199L70.3311 267.153H74.1149ZM80.5338 265.999C80.5338 266.509 80.4155 266.939 80.1791 267.288C79.9426 267.637 79.6197 267.902 79.2106 268.082C78.8052 268.259 78.3472 268.347 77.8367 268.347C77.3262 268.347 76.8664 268.259 76.4572 268.082C76.048 267.902 75.7252 267.637 75.4887 267.288C75.2523 266.939 75.134 266.509 75.134 265.999C75.134 265.661 75.1997 265.355 75.3311 265.081C75.4625 264.803 75.6483 264.565 75.8885 264.366C76.1325 264.163 76.4178 264.008 76.7444 263.899C77.0747 263.79 77.4351 263.735 77.8255 263.735C78.3435 263.735 78.8071 263.831 79.2162 264.023C79.6254 264.214 79.9463 264.479 80.1791 264.816C80.4155 265.154 80.5338 265.548 80.5338 265.999ZM79.1712 265.931C79.1712 265.657 79.1149 265.417 79.0023 265.211C78.8896 265.004 78.732 264.845 78.5293 264.732C78.3266 264.619 78.092 264.563 77.8255 264.563C77.5552 264.563 77.3206 264.619 77.1216 264.732C76.9227 264.845 76.7669 265.004 76.6543 265.211C76.5454 265.417 76.491 265.657 76.491 265.931C76.491 266.209 76.5454 266.449 76.6543 266.652C76.7631 266.851 76.9189 267.003 77.1216 267.108C77.3243 267.213 77.5627 267.266 77.8367 267.266C78.1107 267.266 78.3472 267.213 78.5462 267.108C78.7451 267.003 78.899 266.851 79.0079 266.652C79.1167 266.449 79.1712 266.209 79.1712 265.931ZM80.348 262.193C80.348 262.602 80.2391 262.966 80.0214 263.285C79.8074 263.604 79.5109 263.855 79.1318 264.039C78.7526 264.22 78.3209 264.31 77.8367 264.31C77.3487 264.31 76.9133 264.22 76.5304 264.039C76.1513 263.855 75.8529 263.604 75.6351 263.285C75.4212 262.966 75.3142 262.602 75.3142 262.193C75.3142 261.705 75.4212 261.294 75.6351 260.959C75.8529 260.622 76.1513 260.364 76.5304 260.188C76.9095 260.012 77.3431 259.923 77.8311 259.923C78.3191 259.923 78.7526 260.012 79.1318 260.188C79.5109 260.364 79.8074 260.622 80.0214 260.959C80.2391 261.294 80.348 261.705 80.348 262.193ZM78.991 262.238C78.991 261.994 78.9422 261.78 78.8446 261.596C78.7508 261.408 78.6175 261.262 78.4448 261.157C78.2721 261.051 78.0676 260.999 77.8311 260.999C77.5946 260.999 77.39 261.05 77.2173 261.151C77.0447 261.252 76.9114 261.395 76.8176 261.579C76.7237 261.763 76.6768 261.982 76.6768 262.238C76.6768 262.489 76.7237 262.709 76.8176 262.896C76.9114 263.08 77.0447 263.225 77.2173 263.33C77.3938 263.435 77.6002 263.488 77.8367 263.488C78.0732 263.488 78.2778 263.435 78.4505 263.33C78.6231 263.225 78.7564 263.08 78.8502 262.896C78.9441 262.709 78.991 262.489 78.991 262.238ZM85.8266 259.985H85.9955V261.095H85.8998C85.4155 261.095 84.997 261.17 84.6441 261.32C84.295 261.47 84.0079 261.676 83.7827 261.939C83.5574 262.202 83.3885 262.51 83.2759 262.863C83.167 263.212 83.1126 263.583 83.1126 263.977V265.267C83.1126 265.593 83.1483 265.883 83.2196 266.134C83.2909 266.382 83.3904 266.59 83.518 266.759C83.6494 266.924 83.7996 267.05 83.9685 267.136C84.1374 267.223 84.3194 267.266 84.5146 267.266C84.7173 267.266 84.9013 267.224 85.0664 267.142C85.2316 267.056 85.3724 266.937 85.4887 266.787C85.6051 266.637 85.6933 266.459 85.7534 266.252C85.8134 266.046 85.8435 265.821 85.8435 265.577C85.8435 265.344 85.8134 265.126 85.7534 264.923C85.6971 264.717 85.6126 264.537 85.5 264.383C85.3874 264.225 85.2466 264.103 85.0777 264.017C84.9125 263.927 84.7211 263.882 84.5034 263.882C84.2331 263.882 83.9872 263.946 83.7658 264.073C83.548 264.201 83.3716 264.368 83.2365 264.574C83.1051 264.777 83.0338 264.993 83.0225 265.222L82.5045 265.053C82.5345 264.704 82.6115 264.39 82.7354 264.113C82.863 263.835 83.03 263.598 83.2365 263.403C83.4429 263.208 83.6813 263.06 83.9516 262.958C84.2256 262.853 84.5259 262.801 84.8525 262.801C85.2504 262.801 85.5957 262.876 85.8885 263.026C86.1813 263.176 86.4234 263.381 86.6149 263.64C86.8101 263.895 86.9546 264.188 87.0484 264.518C87.146 264.845 87.1948 265.186 87.1948 265.543C87.1948 265.937 87.1348 266.305 87.0146 266.646C86.8945 266.984 86.7181 267.281 86.4854 267.536C86.2564 267.791 85.9767 267.99 85.6464 268.133C85.3198 268.276 84.9482 268.347 84.5315 268.347C84.0923 268.347 83.7001 268.262 83.3547 268.093C83.0131 267.925 82.7222 267.692 82.482 267.395C82.2455 267.099 82.0653 266.757 81.9414 266.37C81.8176 265.984 81.7556 265.575 81.7556 265.143V264.58C81.7556 263.957 81.8345 263.369 81.9921 262.818C82.1498 262.262 82.3919 261.772 82.7185 261.348C83.0488 260.924 83.4711 260.592 83.9854 260.351C84.4996 260.107 85.1134 259.985 85.8266 259.985Z" fill="black" fill-opacity="0.87"/>
<rect x="147.279" y="244.261" width="5.76577" height="5.76577" rx="2.88288" fill="#C2ECC1"/>
<path d="M167.537 247.085H165.936V246.245H167.537C167.816 246.245 168.041 246.2 168.213 246.11C168.384 246.02 168.51 245.896 168.588 245.738C168.67 245.578 168.711 245.395 168.711 245.189C168.711 244.995 168.67 244.813 168.588 244.644C168.51 244.473 168.384 244.335 168.213 244.231C168.041 244.126 167.816 244.074 167.537 244.074H166.262V249.378H165.202V243.23H167.537C168.013 243.23 168.417 243.314 168.749 243.483C169.084 243.649 169.339 243.88 169.513 244.176C169.688 244.468 169.775 244.803 169.775 245.181C169.775 245.578 169.688 245.918 169.513 246.203C169.339 246.487 169.084 246.705 168.749 246.857C168.417 247.009 168.013 247.085 167.537 247.085ZM172.579 249.463C172.241 249.463 171.936 249.408 171.663 249.298C171.393 249.186 171.162 249.029 170.97 248.829C170.782 248.63 170.637 248.394 170.535 248.124C170.434 247.854 170.383 247.563 170.383 247.25V247.081C170.383 246.724 170.435 246.4 170.539 246.11C170.644 245.82 170.789 245.572 170.974 245.367C171.16 245.158 171.38 244.999 171.633 244.889C171.887 244.78 172.161 244.725 172.457 244.725C172.783 244.725 173.069 244.78 173.314 244.889C173.559 244.999 173.762 245.154 173.922 245.354C174.085 245.551 174.206 245.786 174.285 246.059C174.367 246.332 174.408 246.633 174.408 246.963V247.398H170.877V246.667H173.403V246.587C173.397 246.404 173.36 246.232 173.293 246.072C173.228 245.911 173.128 245.782 172.993 245.683C172.858 245.585 172.678 245.535 172.453 245.535C172.284 245.535 172.133 245.572 172.001 245.645C171.871 245.716 171.763 245.818 171.675 245.954C171.588 246.089 171.521 246.252 171.473 246.443C171.428 246.632 171.405 246.845 171.405 247.081V247.25C171.405 247.45 171.432 247.636 171.485 247.807C171.542 247.976 171.623 248.124 171.73 248.251C171.837 248.378 171.967 248.477 172.119 248.551C172.271 248.621 172.444 248.656 172.638 248.656C172.883 248.656 173.101 248.607 173.293 248.508C173.484 248.41 173.65 248.271 173.791 248.09L174.328 248.61C174.229 248.753 174.101 248.891 173.943 249.024C173.786 249.153 173.593 249.259 173.365 249.34C173.139 249.422 172.878 249.463 172.579 249.463ZM176.211 245.785V249.378H175.193V244.809H176.152L176.211 245.785ZM176.029 246.925L175.7 246.921C175.703 246.597 175.748 246.3 175.835 246.03C175.925 245.759 176.049 245.527 176.207 245.333C176.367 245.139 176.559 244.989 176.781 244.885C177.003 244.778 177.251 244.725 177.524 244.725C177.744 244.725 177.942 244.756 178.12 244.818C178.3 244.877 178.453 244.974 178.58 245.109C178.71 245.244 178.808 245.42 178.876 245.637C178.943 245.851 178.977 246.114 178.977 246.427V249.378H177.955V246.422C177.955 246.203 177.923 246.03 177.858 245.903C177.796 245.773 177.704 245.682 177.583 245.628C177.465 245.572 177.317 245.544 177.14 245.544C176.965 245.544 176.809 245.581 176.671 245.654C176.533 245.727 176.416 245.827 176.321 245.954C176.228 246.08 176.156 246.227 176.105 246.393C176.055 246.559 176.029 246.736 176.029 246.925ZM182.803 248.432V242.892H183.825V249.378H182.9L182.803 248.432ZM179.83 247.144V247.056C179.83 246.709 179.871 246.394 179.953 246.11C180.034 245.823 180.152 245.576 180.307 245.371C180.462 245.162 180.651 245.003 180.873 244.894C181.096 244.781 181.346 244.725 181.625 244.725C181.901 244.725 182.143 244.778 182.351 244.885C182.559 244.992 182.737 245.146 182.883 245.345C183.03 245.543 183.146 245.779 183.234 246.055C183.321 246.328 183.383 246.632 183.42 246.967V247.25C183.383 247.577 183.321 247.875 183.234 248.145C183.146 248.416 183.03 248.649 182.883 248.846C182.737 249.043 182.558 249.195 182.347 249.302C182.139 249.409 181.895 249.463 181.616 249.463C181.34 249.463 181.091 249.405 180.869 249.29C180.649 249.174 180.462 249.012 180.307 248.804C180.152 248.596 180.034 248.351 179.953 248.069C179.871 247.785 179.83 247.477 179.83 247.144ZM180.848 247.056V247.144C180.848 247.353 180.866 247.547 180.903 247.727C180.942 247.907 181.003 248.066 181.084 248.204C181.166 248.34 181.271 248.447 181.401 248.525C181.533 248.601 181.691 248.639 181.874 248.639C182.105 248.639 182.295 248.589 182.444 248.487C182.593 248.386 182.71 248.249 182.795 248.078C182.882 247.903 182.941 247.709 182.972 247.495V246.731C182.955 246.564 182.92 246.41 182.866 246.266C182.816 246.122 182.747 245.997 182.659 245.89C182.572 245.78 182.464 245.696 182.334 245.637C182.208 245.575 182.057 245.544 181.882 245.544C181.697 245.544 181.539 245.583 181.409 245.662C181.28 245.741 181.173 245.849 181.088 245.987C181.007 246.125 180.946 246.286 180.907 246.469C180.867 246.652 180.848 246.847 180.848 247.056ZM185.979 244.809V249.378H184.957V244.809H185.979ZM184.889 243.61C184.889 243.455 184.94 243.327 185.041 243.226C185.145 243.121 185.289 243.069 185.472 243.069C185.652 243.069 185.794 243.121 185.898 243.226C186.003 243.327 186.055 243.455 186.055 243.61C186.055 243.762 186.003 243.889 185.898 243.99C185.794 244.091 185.652 244.142 185.472 244.142C185.289 244.142 185.145 244.091 185.041 243.99C184.94 243.889 184.889 243.762 184.889 243.61ZM188.103 245.785V249.378H187.085V244.809H188.044L188.103 245.785ZM187.921 246.925L187.592 246.921C187.595 246.597 187.64 246.3 187.727 246.03C187.817 245.759 187.941 245.527 188.099 245.333C188.259 245.139 188.451 244.989 188.673 244.885C188.895 244.778 189.143 244.725 189.416 244.725C189.636 244.725 189.834 244.756 190.012 244.818C190.192 244.877 190.345 244.974 190.472 245.109C190.601 245.244 190.7 245.42 190.768 245.637C190.835 245.851 190.869 246.114 190.869 246.427V249.378H189.847V246.422C189.847 246.203 189.815 246.03 189.75 245.903C189.688 245.773 189.596 245.682 189.475 245.628C189.357 245.572 189.209 245.544 189.032 245.544C188.857 245.544 188.701 245.581 188.563 245.654C188.425 245.727 188.308 245.827 188.213 245.954C188.12 246.08 188.048 246.227 187.997 246.393C187.947 246.559 187.921 246.736 187.921 246.925ZM194.834 244.809H195.759V249.252C195.759 249.663 195.672 250.012 195.497 250.299C195.323 250.586 195.079 250.804 194.767 250.954C194.454 251.106 194.092 251.182 193.681 251.182C193.507 251.182 193.313 251.156 193.099 251.106C192.887 251.055 192.682 250.973 192.482 250.861C192.285 250.751 192.12 250.606 191.988 250.426L192.465 249.826C192.628 250.02 192.809 250.162 193.006 250.253C193.203 250.343 193.41 250.388 193.626 250.388C193.86 250.388 194.059 250.344 194.222 250.257C194.388 250.172 194.516 250.047 194.606 249.881C194.696 249.715 194.741 249.512 194.741 249.273V245.844L194.834 244.809ZM191.73 247.144V247.056C191.73 246.709 191.773 246.394 191.857 246.11C191.942 245.823 192.063 245.576 192.22 245.371C192.378 245.162 192.569 245.003 192.795 244.894C193.02 244.781 193.275 244.725 193.559 244.725C193.855 244.725 194.107 244.778 194.315 244.885C194.526 244.992 194.702 245.146 194.843 245.345C194.983 245.543 195.093 245.779 195.172 246.055C195.254 246.328 195.314 246.632 195.354 246.967V247.25C195.317 247.577 195.255 247.875 195.168 248.145C195.081 248.416 194.965 248.649 194.822 248.846C194.678 249.043 194.501 249.195 194.289 249.302C194.081 249.409 193.835 249.463 193.55 249.463C193.272 249.463 193.02 249.405 192.795 249.29C192.572 249.174 192.381 249.012 192.22 248.804C192.063 248.596 191.942 248.351 191.857 248.069C191.773 247.785 191.73 247.477 191.73 247.144ZM192.748 247.056V247.144C192.748 247.353 192.768 247.547 192.807 247.727C192.849 247.907 192.913 248.066 192.997 248.204C193.085 248.34 193.194 248.447 193.327 248.525C193.462 248.601 193.621 248.639 193.804 248.639C194.043 248.639 194.239 248.589 194.391 248.487C194.546 248.386 194.664 248.249 194.746 248.078C194.83 247.903 194.889 247.709 194.923 247.495V246.731C194.906 246.564 194.871 246.41 194.817 246.266C194.767 246.122 194.698 245.997 194.61 245.89C194.523 245.78 194.413 245.696 194.281 245.637C194.149 245.575 193.992 245.544 193.812 245.544C193.629 245.544 193.47 245.583 193.335 245.662C193.2 245.741 193.089 245.849 193.001 245.987C192.917 246.125 192.854 246.286 192.811 246.469C192.769 246.652 192.748 246.847 192.748 247.056ZM200.058 244.809V249.378H199.036V244.809H200.058ZM198.969 243.61C198.969 243.455 199.019 243.327 199.121 243.226C199.225 243.121 199.368 243.069 199.551 243.069C199.732 243.069 199.874 243.121 199.978 243.226C200.082 243.327 200.134 243.455 200.134 243.61C200.134 243.762 200.082 243.889 199.978 243.99C199.874 244.091 199.732 244.142 199.551 244.142C199.368 244.142 199.225 244.091 199.121 243.99C199.019 243.889 198.969 243.762 198.969 243.61ZM202.182 245.785V249.378H201.164V244.809H202.123L202.182 245.785ZM202.001 246.925L201.671 246.921C201.674 246.597 201.719 246.3 201.806 246.03C201.896 245.759 202.02 245.527 202.178 245.333C202.338 245.139 202.53 244.989 202.752 244.885C202.975 244.778 203.222 244.725 203.496 244.725C203.715 244.725 203.914 244.756 204.091 244.818C204.271 244.877 204.425 244.974 204.551 245.109C204.681 245.244 204.779 245.42 204.847 245.637C204.914 245.851 204.948 246.114 204.948 246.427V249.378H203.926V246.422C203.926 246.203 203.894 246.03 203.829 245.903C203.767 245.773 203.676 245.682 203.555 245.628C203.436 245.572 203.289 245.544 203.111 245.544C202.937 245.544 202.78 245.581 202.643 245.654C202.505 245.727 202.388 245.827 202.292 245.954C202.199 246.08 202.127 246.227 202.077 246.393C202.026 246.559 202.001 246.736 202.001 246.925ZM207.474 248.572L208.593 244.809H209.648L208.061 249.378H207.402L207.474 248.572ZM206.616 244.809L207.757 248.589L207.811 249.378H207.153L205.556 244.809H206.616ZM211.367 244.809V249.378H210.345V244.809H211.367ZM210.278 243.61C210.278 243.455 210.328 243.327 210.43 243.226C210.534 243.121 210.677 243.069 210.86 243.069C211.041 243.069 211.183 243.121 211.287 243.226C211.391 243.327 211.443 243.455 211.443 243.61C211.443 243.762 211.391 243.889 211.287 243.99C211.183 244.091 211.041 244.142 210.86 244.142C210.677 244.142 210.534 244.091 210.43 243.99C210.328 243.889 210.278 243.762 210.278 243.61ZM214.577 244.809V245.552H212.001V244.809H214.577ZM212.744 243.69H213.762V248.116C213.762 248.256 213.781 248.365 213.821 248.441C213.863 248.514 213.921 248.563 213.994 248.589C214.067 248.614 214.153 248.627 214.251 248.627C214.322 248.627 214.389 248.622 214.454 248.614C214.519 248.606 214.571 248.597 214.61 248.589L214.615 249.366C214.53 249.391 214.432 249.414 214.319 249.433C214.209 249.453 214.083 249.463 213.939 249.463C213.705 249.463 213.498 249.422 213.318 249.34C213.138 249.256 212.997 249.119 212.896 248.931C212.795 248.742 212.744 248.492 212.744 248.179V243.69ZM217.938 248.462V246.283C217.938 246.12 217.909 245.979 217.849 245.861C217.79 245.742 217.7 245.651 217.579 245.586C217.461 245.521 217.312 245.489 217.132 245.489C216.965 245.489 216.822 245.517 216.701 245.573C216.58 245.63 216.485 245.706 216.418 245.802C216.35 245.897 216.317 246.006 216.317 246.127H215.303C215.303 245.947 215.347 245.772 215.434 245.603C215.521 245.434 215.648 245.284 215.814 245.151C215.98 245.019 216.179 244.915 216.409 244.839C216.64 244.763 216.899 244.725 217.186 244.725C217.53 244.725 217.834 244.782 218.099 244.898C218.366 245.013 218.576 245.188 218.728 245.421C218.883 245.652 218.96 245.942 218.96 246.291V248.323C218.96 248.531 218.974 248.718 219.002 248.884C219.033 249.048 219.077 249.19 219.133 249.311V249.378H218.09C218.042 249.269 218.004 249.129 217.976 248.96C217.951 248.789 217.938 248.622 217.938 248.462ZM218.086 246.6L218.094 247.229H217.364C217.175 247.229 217.009 247.247 216.866 247.284C216.722 247.318 216.602 247.368 216.507 247.436C216.411 247.503 216.339 247.585 216.291 247.681C216.243 247.776 216.219 247.885 216.219 248.006C216.219 248.127 216.248 248.238 216.304 248.34C216.36 248.438 216.442 248.515 216.549 248.572C216.659 248.628 216.791 248.656 216.946 248.656C217.154 248.656 217.336 248.614 217.491 248.53C217.648 248.442 217.772 248.337 217.862 248.213C217.952 248.086 218 247.967 218.006 247.854L218.335 248.306C218.301 248.421 218.244 248.545 218.162 248.677C218.08 248.81 217.973 248.936 217.841 249.057C217.712 249.176 217.555 249.273 217.372 249.349C217.192 249.425 216.984 249.463 216.747 249.463C216.449 249.463 216.183 249.404 215.949 249.285C215.715 249.164 215.532 249.003 215.4 248.8C215.268 248.594 215.202 248.362 215.202 248.103C215.202 247.861 215.247 247.647 215.337 247.461C215.43 247.273 215.565 247.115 215.742 246.988C215.922 246.861 216.142 246.766 216.401 246.701C216.66 246.633 216.956 246.6 217.288 246.6H218.086ZM222.119 244.809V245.552H219.543V244.809H222.119ZM220.286 243.69H221.304V248.116C221.304 248.256 221.324 248.365 221.363 248.441C221.405 248.514 221.463 248.563 221.536 248.589C221.609 248.614 221.695 248.627 221.794 248.627C221.864 248.627 221.932 248.622 221.996 248.614C222.061 248.606 222.113 248.597 222.153 248.589L222.157 249.366C222.072 249.391 221.974 249.414 221.861 249.433C221.751 249.453 221.625 249.463 221.481 249.463C221.248 249.463 221.041 249.422 220.86 249.34C220.68 249.256 220.539 249.119 220.438 248.931C220.337 248.742 220.286 248.492 220.286 248.179V243.69ZM223.994 244.809V249.378H222.972V244.809H223.994ZM222.904 243.61C222.904 243.455 222.955 243.327 223.056 243.226C223.161 243.121 223.304 243.069 223.487 243.069C223.667 243.069 223.809 243.121 223.914 243.226C224.018 243.327 224.07 243.455 224.07 243.61C224.07 243.762 224.018 243.889 223.914 243.99C223.809 244.091 223.667 244.142 223.487 244.142C223.304 244.142 223.161 244.091 223.056 243.99C222.955 243.889 222.904 243.762 222.904 243.61ZM224.915 247.144V247.047C224.915 246.718 224.962 246.412 225.058 246.131C225.154 245.847 225.292 245.6 225.472 245.392C225.655 245.181 225.877 245.017 226.139 244.902C226.404 244.784 226.702 244.725 227.034 244.725C227.369 244.725 227.668 244.784 227.93 244.902C228.194 245.017 228.418 245.181 228.601 245.392C228.784 245.6 228.924 245.847 229.019 246.131C229.115 246.412 229.163 246.718 229.163 247.047V247.144C229.163 247.474 229.115 247.779 229.019 248.061C228.924 248.342 228.784 248.589 228.601 248.8C228.418 249.008 228.196 249.171 227.934 249.29C227.672 249.405 227.375 249.463 227.043 249.463C226.708 249.463 226.408 249.405 226.143 249.29C225.882 249.171 225.659 249.008 225.476 248.8C225.293 248.589 225.154 248.342 225.058 248.061C224.962 247.779 224.915 247.474 224.915 247.144ZM225.932 247.047V247.144C225.932 247.35 225.953 247.544 225.996 247.727C226.038 247.91 226.104 248.071 226.194 248.209C226.284 248.347 226.4 248.455 226.54 248.534C226.681 248.613 226.849 248.652 227.043 248.652C227.232 248.652 227.395 248.613 227.533 248.534C227.674 248.455 227.789 248.347 227.879 248.209C227.969 248.071 228.035 247.91 228.078 247.727C228.123 247.544 228.145 247.35 228.145 247.144V247.047C228.145 246.845 228.123 246.653 228.078 246.473C228.035 246.29 227.968 246.128 227.875 245.987C227.785 245.847 227.669 245.737 227.529 245.658C227.391 245.576 227.226 245.535 227.034 245.535C226.843 245.535 226.677 245.576 226.536 245.658C226.398 245.737 226.284 245.847 226.194 245.987C226.104 246.128 226.038 246.29 225.996 246.473C225.953 246.653 225.932 246.845 225.932 247.047ZM231.025 245.785V249.378H230.007V244.809H230.966L231.025 245.785ZM230.844 246.925L230.514 246.921C230.517 246.597 230.562 246.3 230.649 246.03C230.739 245.759 230.863 245.527 231.021 245.333C231.181 245.139 231.373 244.989 231.595 244.885C231.818 244.778 232.065 244.725 232.338 244.725C232.558 244.725 232.757 244.756 232.934 244.818C233.114 244.877 233.268 244.974 233.394 245.109C233.524 245.244 233.622 245.42 233.69 245.637C233.757 245.851 233.791 246.114 233.791 246.427V249.378H232.769V246.422C232.769 246.203 232.737 246.03 232.672 245.903C232.61 245.773 232.519 245.682 232.398 245.628C232.279 245.572 232.132 245.544 231.954 245.544C231.78 245.544 231.623 245.581 231.485 245.654C231.347 245.727 231.231 245.827 231.135 245.954C231.042 246.08 230.97 246.227 230.92 246.393C230.869 246.559 230.844 246.736 230.844 246.925ZM237.393 248.141C237.393 248.04 237.368 247.948 237.317 247.867C237.267 247.782 237.17 247.706 237.026 247.639C236.885 247.571 236.677 247.509 236.401 247.453C236.159 247.399 235.936 247.336 235.734 247.263C235.534 247.187 235.362 247.095 235.219 246.988C235.075 246.881 234.964 246.755 234.885 246.608C234.806 246.462 234.767 246.293 234.767 246.101C234.767 245.916 234.808 245.74 234.889 245.573C234.971 245.407 235.088 245.261 235.24 245.134C235.392 245.008 235.576 244.908 235.793 244.834C236.012 244.761 236.257 244.725 236.528 244.725C236.911 244.725 237.239 244.789 237.512 244.919C237.788 245.046 237.999 245.219 238.145 245.438C238.291 245.655 238.365 245.9 238.365 246.173H237.347C237.347 246.052 237.316 245.939 237.254 245.835C237.195 245.728 237.105 245.642 236.984 245.578C236.863 245.51 236.711 245.476 236.528 245.476C236.353 245.476 236.208 245.505 236.093 245.561C235.98 245.614 235.896 245.685 235.839 245.772C235.786 245.859 235.759 245.955 235.759 246.059C235.759 246.135 235.773 246.204 235.801 246.266C235.832 246.325 235.883 246.38 235.953 246.431C236.024 246.479 236.119 246.524 236.241 246.566C236.364 246.608 236.519 246.649 236.705 246.688C237.054 246.762 237.354 246.856 237.605 246.971C237.858 247.084 238.052 247.23 238.187 247.41C238.322 247.588 238.39 247.813 238.39 248.086C238.39 248.289 238.346 248.475 238.259 248.644C238.175 248.81 238.051 248.955 237.887 249.079C237.724 249.2 237.529 249.294 237.3 249.361C237.075 249.429 236.822 249.463 236.54 249.463C236.126 249.463 235.776 249.39 235.489 249.243C235.202 249.094 234.983 248.904 234.834 248.673C234.688 248.439 234.615 248.197 234.615 247.947H235.599C235.61 248.135 235.662 248.286 235.755 248.399C235.851 248.508 235.969 248.589 236.11 248.639C236.253 248.687 236.401 248.711 236.553 248.711C236.736 248.711 236.889 248.687 237.013 248.639C237.137 248.589 237.232 248.521 237.296 248.437C237.361 248.349 237.393 248.251 237.393 248.141Z" fill="black" fill-opacity="0.38"/>
<path d="M168.901 260.008V268.234H167.544V261.618L165.534 262.3V261.179L168.738 260.008H168.901ZM177.246 267.153V268.234H171.75V267.305L174.419 264.394C174.712 264.064 174.943 263.779 175.112 263.538C175.28 263.298 175.399 263.082 175.466 262.891C175.538 262.696 175.573 262.506 175.573 262.322C175.573 262.063 175.524 261.836 175.427 261.641C175.333 261.442 175.194 261.286 175.01 261.173C174.826 261.057 174.603 260.999 174.34 260.999C174.036 260.999 173.781 261.065 173.574 261.196C173.368 261.327 173.212 261.509 173.107 261.742C173.002 261.971 172.949 262.234 172.949 262.53H171.592C171.592 262.054 171.701 261.618 171.919 261.224C172.137 260.826 172.452 260.511 172.865 260.278C173.278 260.042 173.775 259.923 174.357 259.923C174.905 259.923 175.371 260.015 175.753 260.199C176.136 260.383 176.427 260.644 176.626 260.982C176.829 261.32 176.93 261.72 176.93 262.181C176.93 262.437 176.889 262.69 176.806 262.941C176.724 263.193 176.606 263.444 176.452 263.696C176.302 263.944 176.123 264.193 175.917 264.445C175.71 264.693 175.483 264.944 175.235 265.199L173.462 267.153H177.246Z" fill="black" fill-opacity="0.87"/>
<rect x="243.856" y="244.261" width="5.76577" height="5.76577" rx="2.88288" fill="#C5C7F6"/>
<path d="M264.114 247.085H262.513V246.245H264.114C264.392 246.245 264.618 246.2 264.789 246.11C264.961 246.02 265.086 245.896 265.165 245.738C265.247 245.578 265.288 245.395 265.288 245.189C265.288 244.995 265.247 244.813 265.165 244.644C265.086 244.473 264.961 244.335 264.789 244.231C264.618 244.126 264.392 244.074 264.114 244.074H262.838V249.378H261.778V243.23H264.114C264.589 243.23 264.993 243.314 265.326 243.483C265.661 243.649 265.915 243.88 266.09 244.176C266.265 244.468 266.352 244.803 266.352 245.181C266.352 245.578 266.265 245.918 266.09 246.203C265.915 246.487 265.661 246.705 265.326 246.857C264.993 247.009 264.589 247.085 264.114 247.085ZM268.223 245.679V249.378H267.205V244.809H268.176L268.223 245.679ZM269.62 244.78L269.612 245.726C269.55 245.714 269.482 245.706 269.409 245.7C269.339 245.695 269.268 245.692 269.198 245.692C269.024 245.692 268.87 245.717 268.738 245.768C268.605 245.816 268.494 245.886 268.404 245.979C268.317 246.069 268.249 246.179 268.201 246.308C268.154 246.438 268.125 246.583 268.117 246.743L267.885 246.76C267.885 246.473 267.913 246.207 267.969 245.962C268.026 245.717 268.11 245.502 268.223 245.316C268.338 245.13 268.482 244.985 268.653 244.881C268.828 244.777 269.029 244.725 269.257 244.725C269.319 244.725 269.385 244.73 269.456 244.742C269.529 244.753 269.584 244.765 269.62 244.78ZM269.954 247.144V247.047C269.954 246.718 270.002 246.412 270.098 246.131C270.193 245.847 270.331 245.6 270.511 245.392C270.694 245.181 270.917 245.017 271.179 244.902C271.443 244.784 271.742 244.725 272.074 244.725C272.409 244.725 272.707 244.784 272.969 244.902C273.234 245.017 273.458 245.181 273.641 245.392C273.824 245.6 273.963 245.847 274.059 246.131C274.154 246.412 274.202 246.718 274.202 247.047V247.144C274.202 247.474 274.154 247.779 274.059 248.061C273.963 248.342 273.824 248.589 273.641 248.8C273.458 249.008 273.235 249.171 272.973 249.29C272.712 249.405 272.415 249.463 272.082 249.463C271.747 249.463 271.448 249.405 271.183 249.29C270.921 249.171 270.699 249.008 270.516 248.8C270.333 248.589 270.193 248.342 270.098 248.061C270.002 247.779 269.954 247.474 269.954 247.144ZM270.972 247.047V247.144C270.972 247.35 270.993 247.544 271.035 247.727C271.077 247.91 271.143 248.071 271.234 248.209C271.324 248.347 271.439 248.455 271.58 248.534C271.721 248.613 271.888 248.652 272.082 248.652C272.271 248.652 272.434 248.613 272.572 248.534C272.713 248.455 272.828 248.347 272.919 248.209C273.009 248.071 273.075 247.91 273.117 247.727C273.162 247.544 273.185 247.35 273.185 247.144V247.047C273.185 246.845 273.162 246.653 273.117 246.473C273.075 246.29 273.007 246.128 272.914 245.987C272.824 245.847 272.709 245.737 272.568 245.658C272.43 245.576 272.265 245.535 272.074 245.535C271.883 245.535 271.716 245.576 271.576 245.658C271.438 245.737 271.324 245.847 271.234 245.987C271.143 246.128 271.077 246.29 271.035 246.473C270.993 246.653 270.972 246.845 270.972 247.047ZM276.364 249.378H275.343V244.514C275.343 244.145 275.416 243.834 275.562 243.58C275.711 243.327 275.924 243.134 276.2 243.002C276.479 242.869 276.809 242.803 277.192 242.803C277.417 242.803 277.634 242.827 277.843 242.875C278.054 242.923 278.272 242.983 278.497 243.057L278.341 243.884C278.197 243.836 278.038 243.791 277.864 243.749C277.689 243.704 277.488 243.682 277.26 243.682C276.953 243.682 276.726 243.752 276.58 243.893C276.436 244.031 276.364 244.238 276.364 244.514V249.378ZM277.281 244.809V245.552H274.642V244.809H277.281ZM278.979 244.809V249.378H277.961V244.809H278.979ZM281.204 242.892V249.378H280.182V242.892H281.204ZM284.333 249.463C283.995 249.463 283.69 249.408 283.417 249.298C283.147 249.186 282.916 249.029 282.724 248.829C282.536 248.63 282.391 248.394 282.289 248.124C282.188 247.854 282.137 247.563 282.137 247.25V247.081C282.137 246.724 282.189 246.4 282.294 246.11C282.398 245.82 282.543 245.572 282.729 245.367C282.914 245.158 283.134 244.999 283.387 244.889C283.641 244.78 283.915 244.725 284.211 244.725C284.537 244.725 284.823 244.78 285.068 244.889C285.313 244.999 285.516 245.154 285.676 245.354C285.839 245.551 285.96 245.786 286.039 246.059C286.121 246.332 286.162 246.633 286.162 246.963V247.398H282.631V246.667H285.157V246.587C285.151 246.404 285.114 246.232 285.047 246.072C284.982 245.911 284.882 245.782 284.747 245.683C284.612 245.585 284.432 245.535 284.207 245.535C284.038 245.535 283.887 245.572 283.755 245.645C283.625 245.716 283.517 245.818 283.43 245.954C283.342 246.089 283.275 246.252 283.227 246.443C283.182 246.632 283.159 246.845 283.159 247.081V247.25C283.159 247.45 283.186 247.636 283.239 247.807C283.296 247.976 283.377 248.124 283.484 248.251C283.591 248.378 283.721 248.477 283.873 248.551C284.025 248.621 284.198 248.656 284.392 248.656C284.637 248.656 284.855 248.607 285.047 248.508C285.238 248.41 285.404 248.271 285.545 248.09L286.082 248.61C285.983 248.753 285.855 248.891 285.697 249.024C285.54 249.153 285.347 249.259 285.119 249.34C284.893 249.422 284.632 249.463 284.333 249.463ZM290.596 248.572L291.715 244.809H292.771L291.183 249.378H290.524L290.596 248.572ZM289.739 244.809L290.879 248.589L290.934 249.378H290.275L288.679 244.809H289.739ZM294.489 244.809V249.378H293.468V244.809H294.489ZM293.4 243.61C293.4 243.455 293.451 243.327 293.552 243.226C293.656 243.121 293.8 243.069 293.983 243.069C294.163 243.069 294.305 243.121 294.409 243.226C294.513 243.327 294.565 243.455 294.565 243.61C294.565 243.762 294.513 243.889 294.409 243.99C294.305 244.091 294.163 244.142 293.983 244.142C293.8 244.142 293.656 244.091 293.552 243.99C293.451 243.889 293.4 243.762 293.4 243.61ZM297.619 249.463C297.281 249.463 296.975 249.408 296.702 249.298C296.432 249.186 296.201 249.029 296.01 248.829C295.821 248.63 295.676 248.394 295.575 248.124C295.473 247.854 295.423 247.563 295.423 247.25V247.081C295.423 246.724 295.475 246.4 295.579 246.11C295.683 245.82 295.828 245.572 296.014 245.367C296.2 245.158 296.419 244.999 296.673 244.889C296.926 244.78 297.201 244.725 297.496 244.725C297.823 244.725 298.109 244.78 298.354 244.889C298.598 244.999 298.801 245.154 298.962 245.354C299.125 245.551 299.246 245.786 299.325 246.059C299.406 246.332 299.447 246.633 299.447 246.963V247.398H295.917V246.667H298.442V246.587C298.437 246.404 298.4 246.232 298.332 246.072C298.268 245.911 298.168 245.782 298.033 245.683C297.897 245.585 297.717 245.535 297.492 245.535C297.323 245.535 297.172 245.572 297.04 245.645C296.911 245.716 296.802 245.818 296.715 245.954C296.628 246.089 296.56 246.252 296.512 246.443C296.467 246.632 296.445 246.845 296.445 247.081V247.25C296.445 247.45 296.471 247.636 296.525 247.807C296.581 247.976 296.663 248.124 296.77 248.251C296.877 248.378 297.006 248.477 297.158 248.551C297.31 248.621 297.484 248.656 297.678 248.656C297.923 248.656 298.141 248.607 298.332 248.508C298.524 248.41 298.69 248.271 298.831 248.09L299.367 248.61C299.268 248.753 299.14 248.891 298.983 249.024C298.825 249.153 298.632 249.259 298.404 249.34C298.179 249.422 297.917 249.463 297.619 249.463ZM301.483 248.365L302.538 244.809H303.189L303.011 245.873L301.947 249.378H301.364L301.483 248.365ZM300.862 244.809L301.685 248.382L301.753 249.378H301.103L299.865 244.809H300.862ZM304.177 248.34L304.975 244.809H305.968L304.734 249.378H304.084L304.177 248.34ZM303.299 244.809L304.342 248.323L304.473 249.378H303.89L302.813 245.869L302.636 244.809H303.299ZM309.223 248.141C309.223 248.04 309.198 247.948 309.147 247.867C309.097 247.782 309 247.706 308.856 247.639C308.715 247.571 308.507 247.509 308.231 247.453C307.989 247.399 307.767 247.336 307.564 247.263C307.364 247.187 307.192 247.095 307.049 246.988C306.905 246.881 306.794 246.755 306.715 246.608C306.636 246.462 306.597 246.293 306.597 246.101C306.597 245.916 306.638 245.74 306.719 245.573C306.801 245.407 306.918 245.261 307.07 245.134C307.222 245.008 307.406 244.908 307.623 244.834C307.843 244.761 308.087 244.725 308.358 244.725C308.741 244.725 309.069 244.789 309.342 244.919C309.618 245.046 309.829 245.219 309.975 245.438C310.122 245.655 310.195 245.9 310.195 246.173H309.177C309.177 246.052 309.146 245.939 309.084 245.835C309.025 245.728 308.935 245.642 308.814 245.578C308.693 245.51 308.541 245.476 308.358 245.476C308.183 245.476 308.038 245.505 307.923 245.561C307.81 245.614 307.726 245.685 307.669 245.772C307.616 245.859 307.589 245.955 307.589 246.059C307.589 246.135 307.603 246.204 307.631 246.266C307.662 246.325 307.713 246.38 307.783 246.431C307.854 246.479 307.95 246.524 308.071 246.566C308.194 246.608 308.349 246.649 308.535 246.688C308.884 246.762 309.184 246.856 309.435 246.971C309.688 247.084 309.882 247.23 310.017 247.41C310.152 247.588 310.22 247.813 310.22 248.086C310.22 248.289 310.176 248.475 310.089 248.644C310.005 248.81 309.881 248.955 309.718 249.079C309.554 249.2 309.359 249.294 309.131 249.361C308.905 249.429 308.652 249.463 308.37 249.463C307.957 249.463 307.606 249.39 307.319 249.243C307.032 249.094 306.814 248.904 306.664 248.673C306.518 248.439 306.445 248.197 306.445 247.947H307.429C307.44 248.135 307.492 248.286 307.585 248.399C307.681 248.508 307.799 248.589 307.94 248.639C308.083 248.687 308.231 248.711 308.383 248.711C308.566 248.711 308.719 248.687 308.843 248.639C308.967 248.589 309.062 248.521 309.126 248.437C309.191 248.349 309.223 248.251 309.223 248.141Z" fill="black" fill-opacity="0.38"/>
<path d="M267.268 267.153V268.234H261.773V267.305L264.442 264.394C264.734 264.064 264.965 263.779 265.134 263.538C265.303 263.298 265.421 263.082 265.489 262.891C265.56 262.696 265.596 262.506 265.596 262.322C265.596 262.063 265.547 261.836 265.45 261.641C265.356 261.442 265.217 261.286 265.033 261.173C264.849 261.057 264.626 260.999 264.363 260.999C264.059 260.999 263.803 261.065 263.597 261.196C263.391 261.327 263.235 261.509 263.13 261.742C263.025 261.971 262.972 262.234 262.972 262.53H261.615C261.615 262.054 261.724 261.618 261.942 261.224C262.159 260.826 262.475 260.511 262.888 260.278C263.3 260.042 263.798 259.923 264.38 259.923C264.928 259.923 265.393 260.015 265.776 260.199C266.159 260.383 266.45 260.644 266.649 260.982C266.852 261.32 266.953 261.72 266.953 262.181C266.953 262.437 266.912 262.69 266.829 262.941C266.746 263.193 266.628 263.444 266.474 263.696C266.324 263.944 266.146 264.193 265.939 264.445C265.733 264.693 265.506 264.944 265.258 265.199L263.484 267.153H267.268ZM273.687 265.999C273.687 266.509 273.569 266.939 273.332 267.288C273.096 267.637 272.773 267.902 272.364 268.082C271.959 268.259 271.501 268.347 270.99 268.347C270.48 268.347 270.02 268.259 269.611 268.082C269.201 267.902 268.879 267.637 268.642 267.288C268.406 266.939 268.287 266.509 268.287 265.999C268.287 265.661 268.353 265.355 268.484 265.081C268.616 264.803 268.802 264.565 269.042 264.366C269.286 264.163 269.571 264.008 269.898 263.899C270.228 263.79 270.588 263.735 270.979 263.735C271.497 263.735 271.96 263.831 272.37 264.023C272.779 264.214 273.1 264.479 273.332 264.816C273.569 265.154 273.687 265.548 273.687 265.999ZM272.325 265.931C272.325 265.657 272.268 265.417 272.156 265.211C272.043 265.004 271.885 264.845 271.683 264.732C271.48 264.619 271.245 264.563 270.979 264.563C270.709 264.563 270.474 264.619 270.275 264.732C270.076 264.845 269.92 265.004 269.808 265.211C269.699 265.417 269.644 265.657 269.644 265.931C269.644 266.209 269.699 266.449 269.808 266.652C269.916 266.851 270.072 267.003 270.275 267.108C270.478 267.213 270.716 267.266 270.99 267.266C271.264 267.266 271.501 267.213 271.7 267.108C271.898 267.003 272.052 266.851 272.161 266.652C272.27 266.449 272.325 266.209 272.325 265.931ZM273.501 262.193C273.501 262.602 273.392 262.966 273.175 263.285C272.961 263.604 272.664 263.855 272.285 264.039C271.906 264.22 271.474 264.31 270.99 264.31C270.502 264.31 270.067 264.22 269.684 264.039C269.305 263.855 269.006 263.604 268.788 263.285C268.575 262.966 268.468 262.602 268.468 262.193C268.468 261.705 268.575 261.294 268.788 260.959C269.006 260.622 269.305 260.364 269.684 260.188C270.063 260.012 270.496 259.923 270.984 259.923C271.472 259.923 271.906 260.012 272.285 260.188C272.664 260.364 272.961 260.622 273.175 260.959C273.392 261.294 273.501 261.705 273.501 262.193ZM272.144 262.238C272.144 261.994 272.096 261.78 271.998 261.596C271.904 261.408 271.771 261.262 271.598 261.157C271.425 261.051 271.221 260.999 270.984 260.999C270.748 260.999 270.543 261.05 270.371 261.151C270.198 261.252 270.065 261.395 269.971 261.579C269.877 261.763 269.83 261.982 269.83 262.238C269.83 262.489 269.877 262.709 269.971 262.896C270.065 263.08 270.198 263.225 270.371 263.33C270.547 263.435 270.754 263.488 270.99 263.488C271.227 263.488 271.431 263.435 271.604 263.33C271.776 263.225 271.91 263.08 272.004 262.896C272.097 262.709 272.144 262.489 272.144 262.238ZM275.973 267.164H276.086C276.604 267.164 277.035 267.097 277.381 266.962C277.73 266.823 278.008 266.631 278.214 266.387C278.421 266.143 278.569 265.856 278.659 265.526C278.749 265.196 278.794 264.837 278.794 264.45V263.037C278.794 262.703 278.758 262.41 278.687 262.159C278.62 261.904 278.522 261.691 278.394 261.523C278.27 261.35 278.126 261.22 277.961 261.134C277.799 261.048 277.625 261.005 277.437 261.005C277.231 261.005 277.045 261.051 276.88 261.145C276.718 261.235 276.581 261.361 276.469 261.523C276.36 261.68 276.275 261.866 276.215 262.08C276.159 262.29 276.131 262.515 276.131 262.756C276.131 262.981 276.157 263.199 276.21 263.409C276.266 263.615 276.349 263.799 276.457 263.961C276.566 264.122 276.703 264.25 276.868 264.343C277.034 264.437 277.227 264.484 277.448 264.484C277.659 264.484 277.852 264.445 278.028 264.366C278.205 264.283 278.359 264.173 278.49 264.034C278.621 263.895 278.725 263.739 278.8 263.566C278.875 263.394 278.916 263.217 278.924 263.037L279.442 263.195C279.442 263.48 279.382 263.762 279.261 264.039C279.145 264.313 278.982 264.565 278.772 264.794C278.565 265.019 278.323 265.199 278.045 265.334C277.771 265.47 277.473 265.537 277.15 265.537C276.76 265.537 276.414 265.464 276.114 265.318C275.817 265.167 275.57 264.965 275.371 264.709C275.175 264.454 275.029 264.161 274.931 263.831C274.834 263.501 274.785 263.154 274.785 262.789C274.785 262.395 274.845 262.026 274.965 261.68C275.085 261.335 275.26 261.031 275.489 260.768C275.718 260.502 275.996 260.295 276.322 260.149C276.653 259.999 277.026 259.923 277.443 259.923C277.886 259.923 278.274 260.01 278.608 260.182C278.942 260.355 279.224 260.593 279.453 260.898C279.682 261.202 279.855 261.554 279.971 261.956C280.087 262.358 280.145 262.789 280.145 263.251V263.73C280.145 264.214 280.102 264.681 280.016 265.132C279.93 265.578 279.789 265.993 279.594 266.376C279.402 266.755 279.149 267.089 278.834 267.378C278.522 267.664 278.139 267.887 277.685 268.048C277.234 268.206 276.705 268.285 276.097 268.285H275.973V267.164ZM285.14 260.008V268.234H283.783V261.618L281.773 262.3V261.179L284.977 260.008H285.14Z" fill="black" fill-opacity="0.87"/>
</svg>
